<?xml version="1.0" standalone="no"?>
<!DOCTYPE svg PUBLIC "-//W3C//DTD SVG 20010904//EN"
 "http://www.w3.org/TR/2001/REC-SVG-20010904/DTD/svg10.dtd">
<svg version="1.0" xmlns="http://www.w3.org/2000/svg"
 width="666.000000pt" height="666.000000pt" viewBox="0 0 666.000000 666.000000"
 preserveAspectRatio="xMidYMid meet">
<metadata>
Created by potrace 1.14, written by Peter Selinger 2001-2017
</metadata>
<g transform="translate(0.000000,666.000000) scale(0.100000,-0.100000)"
fill="#000000" stroke="none">
<path d="M3237 4654 c-1 -1 -31 -5 -67 -9 -133 -13 -283 -57 -411 -119 -71
-34 -208 -113 -219 -125 -3 -3 -23 -19 -45 -36 -60 -44 -189 -177 -249 -258
-64 -86 -140 -224 -170 -310 -12 -34 -25 -67 -28 -73 -10 -16 -41 -156 -55
-254 -9 -57 -8 -294 1 -340 4 -19 9 -48 12 -65 2 -16 7 -41 11 -55 3 -14 8
-34 10 -45 2 -11 6 -27 10 -35 3 -8 7 -17 8 -20 19 -75 96 -251 121 -277 6 -6
17 -25 24 -42 7 -17 16 -31 21 -31 5 0 9 -5 9 -10 0 -6 5 -16 10 -23 65 -77
85 -110 100 -165 6 -23 24 -57 39 -75 16 -17 31 -41 35 -53 21 -68 187 -174
273 -174 67 0 118 19 163 60 l40 37 26 -28 c15 -16 42 -35 60 -44 56 -26 285
-55 445 -56 127 0 151 3 195 22 47 20 58 21 274 15 124 -3 238 -8 253 -11 25
-5 57 12 57 30 0 3 12 22 26 40 33 43 52 108 48 163 -3 38 1 47 39 89 23 26
52 58 65 72 13 14 31 38 40 53 9 16 20 28 24 28 4 0 8 7 8 15 0 7 6 18 13 22
13 9 18 17 70 118 44 86 76 158 80 182 2 10 7 25 10 33 12 30 36 126 42 170 4
25 9 59 12 75 9 50 10 267 1 315 -5 25 -10 63 -13 85 -5 50 -46 193 -74 262
-29 73 -82 177 -93 184 -5 3 -9 9 -9 13 4 20 -109 167 -188 246 -148 147 -251
216 -475 315 -45 20 -194 61 -251 69 -22 3 -58 9 -80 12 -38 6 -243 13 -248 8z"/>
</g>
</svg>
